<?xml version="1.0" encoding="UTF-8" standalone="no"?>
<svg
   version="1.0"
   width="512.000000pt"
   height="512.000000pt"
   viewBox="0 0 512.000000 512.000000"
   preserveAspectRatio="xMidYMid meet"
   id="svg337"
   sodipodi:docname="clogo2w.svg"
   inkscape:version="1.2.1 (9c6d41e410, 2022-07-14)"
   xmlns:inkscape="http://www.inkscape.org/namespaces/inkscape"
   xmlns:sodipodi="http://sodipodi.sourceforge.net/DTD/sodipodi-0.dtd"
   xmlns:xlink="http://www.w3.org/1999/xlink"
   xmlns="http://www.w3.org/2000/svg"
   xmlns:svg="http://www.w3.org/2000/svg">
  <defs
     id="defs341">
    <linearGradient
       inkscape:collect="always"
       id="linearGradient11804">
      <stop
         style="stop-color:#238be8;stop-opacity:1;"
         offset="1"
         id="stop11800" />
      <stop
         style="stop-color:#238be8;stop-opacity:1;"
         offset="1"
         id="stop11802" />
    </linearGradient>
    <linearGradient
       inkscape:collect="always"
       xlink:href="#linearGradient11804"
       id="linearGradient11806"
       x1="879.15006"
       y1="3661.3858"
       x2="2941.0082"
       y2="3661.3858"
       gradientUnits="userSpaceOnUse" />
  </defs>
  <sodipodi:namedview
     id="namedview339"
     pagecolor="#ffffff"
     bordercolor="#cccccc"
     borderopacity="1"
     inkscape:showpageshadow="0"
     inkscape:pageopacity="1"
     inkscape:pagecheckerboard="0"
     inkscape:deskcolor="#d1d1d1"
     inkscape:document-units="pt"
     showgrid="false"
     inkscape:zoom="1.2260742"
     inkscape:cx="268.74393"
     inkscape:cy="356.42214"
     inkscape:window-width="1920"
     inkscape:window-height="1017"
     inkscape:window-x="-8"
     inkscape:window-y="-8"
     inkscape:window-maximized="1"
     inkscape:current-layer="g335" />
  <g
     transform="translate(0.000000,512.000000) scale(0.100000,-0.100000)"
     fill="#000000"
     stroke="none"
     id="g335">
    <path
       d="M2320 4682 c-428 -327 -1460 -1124 -1460 -1127 0 -2 15 2 33 10 17 7 248 103 512 213 454 189 716 294 721 289 3 -3 -949 -752 -961 -755 -11 -3 -303 211 -317 232 -5 8 -12 6 -23 -4 -13 -14 29 -65 414 -495 236 -264 493 -543 572 -620 249 -242 594 -583 584 -577 -66 39 -875 612 -1010 715 -332 253 -609 462 -622 470 -11 6 -13 -43 -13 -266 l0 -274 888 -393 c488 -216 895 -395 905 -398 10 -2 17 1 18 9 2 53 -5 242 -15 391 l-11 177 -510 381 c-280 209 -510 385 -510 390 0 5 213 266 473 580 l474 570 -2 142 c-2 79 -5 209 -9 289 l-6 147 -125 -96z m-629 -1795 l826 -617 7 -83 c3 -45 9 -163 13 -261 l6 -180 -29 21 c-16 11 -220 209 -453 439 -349 345 -490 493 -794 834 -204 228 -384 431 -401 450 -40 44 -123 105 825 -603z m-504 -196 c225 -169 616 -453 871 -631 255 -177 461 -324 459 -326 -1 -2 -395 171 -875 383 l-872 386 0 249 c0 136 2 248 5 248 3 0 188 -139 412 -309z"
       id="path291"
       style="fill:#000000;fill-opacity:1" />
    <path
       d="M2558 4460 c-3 -11 6 -268 17 -446 l7 -122 514 -383 c442 -331 511 -386 500 -399 -7 -8 -223 -268 -479 -577 l-467 -563 7 -290 c5 -228 9 -290 19 -288 13 3 102 71 1057 806 l578 446 -29 30 c-16 17 -211 236 -434 486 -223 250 -434 482 -469 514 -96 90 -671 658 -656 649 119 -73 912 -642 1220 -875 224 -170 412 -306 417 -303 6 4 10 106 10 269 l0 263 -357 158 c-197 87 -600 265 -896 396 -296 132 -542 239 -547 239 -5 0 -10 -4 -12 -10z m925 -410 l867 -384 0 -248 c0 -136 -3 -248 -6 -248 -3 0 -188 139 -412 308 -224 169 -616 454 -872 631 -458 319 -505 353 -465 334 11 -5 410 -182 888 -393z m-440 -72 c225 -221 466 -465 536 -542 331 -368 704 -789 691 -781 -8 5 -387 287 -841 627 l-826 617 -7 63 c-3 35 -9 153 -13 263 l-6 199 29 -22 c16 -13 213 -203 437 -424z m1068 -1229 c82 -61 149 -114 149 -118 0 -12 -1218 -516 -1227 -508 -3 4 917 735 926 736 2 1 71 -49 152 -110z"
       id="path293" />
    <path
       d="M360 1068 l0 -123 138 -139 137 -138 137 143 138 144 0 118 0 117 -65 0 -65 0 0 -108 0 -108 -76 -74 -76 -75 -74 80 -74 80 0 103 0 102 -60 0 -60 0 0 -122z"
       id="path295" />
    <path
       d="M934 1176 c-3 -8 -4 -31 -2 -52 l3 -39 58 -3 c31 -2 57 0 57 4 0 3 -18 28 -41 55 -41 49 -65 61 -75 35z"
       id="path297" />
    <path
       d="M1062 1138 l3 -53 115 -3 c88 -2 118 -6 132 -19 25 -22 23 -35 -12 -68 -16 -16 -30 -32 -30 -37 0 -4 30 -8 67 -8 66 0 68 1 110 42 l43 42 -77 78 -78 78 -138 0 -138 0 3 -52z"
       id="path299" />
    <path
       d="M1400 1182 c0 -4 22 -29 48 -55 l48 -47 222 2 222 3 -46 53 -46 52 -224 0 c-123 0 -224 -4 -224 -8z"
       id="path301" />
    <path
       d="M2017 1135 l-48 -55 104 0 c95 0 105 -2 125 -23 l22 -23 -35 -34 c-19 -19 -35 -38 -35 -42 0 -4 31 -8 69 -8 69 0 70 0 110 43 l40 42 -77 78 -77 77 -75 0 -75 0 -48 -55z"
       id="path303" />
    <path
       d="M2280 1185 c0 -3 21 -28 46 -55 l47 -50 76 0 76 0 200 -206 200 -206 71 4 72 3 -247 257 -246 257 -147 0 c-82 1 -148 -1 -148 -4z"
       id="path305" />
    <path
       d="M3080 925 l0 -255 282 0 282 0 -49 50 -49 50 -173 0 -173 0 0 205 0 205 -60 0 -60 0 0 -255z"
       id="path307"
       style="fill-opacity:1;fill:#238be8" />
    <path
       d="M3680 1135 l0 -45 60 0 60 0 0 45 0 45 -60 0 -60 0 0 -45z"
       id="path309"
       style="fill-opacity:1;fill:#238be8" />
    <path
       d="M3890 1135 l-44 -45 239 0 239 0 -44 45 -44 45 -151 0 -151 0 -44 -45z"
       id="path311"
       style="fill-opacity:1;fill:#238be8" />
    <path
       d="M4417 1135 l-38 -45 218 0 219 0 37 45 38 45 -218 0 -218 -1 -38 -44z"
       id="path313"
       style="fill-opacity:1;fill:#238be8" />
    <path
       d="M930 850 l0 -180 65 0 65 0 0 180 0 180 -65 0 -65 0 0 -180z"
       id="path315" />
    <path
       d="M1090 850 l0 -180 60 0 60 0 0 180 0 180 -60 0 -60 0 0 -180z"
       id="path317" />
    <path
       d="M1670 850 l0 -180 60 0 60 0 0 180 0 180 -60 0 -60 0 0 -180z"
       id="path319" />
    <path
       d="M1970 850 l0 -180 60 0 60 0 0 180 0 180 -60 0 -60 0 0 -180z"
       id="path321" />
    <path
       d="M2400 913 l0 -117 -53 52 -53 52 -77 0 -77 0 0 -50 0 -50 54 0 c53 0 54 0 111 -65 l57 -65 79 0 79 0 0 65 0 65 112 0 112 0 -49 50 c-49 49 -50 50 -112 50 l-63 0 0 65 0 65 -60 0 -60 0 0 -117z"
       id="path323" />
    <path
       d="M3680 850 l0 -180 60 0 60 0 0 180 0 180 -60 0 -60 0 0 -180z"
       id="path325"
       style="fill-opacity:1;fill:#238be8" />
    <path
       d="M3861 1013 c7 -10 38 -44 68 -75 l55 -58 76 0 c69 0 79 -3 100 -25 21 -22 32 -25 94 -25 l70 0 -74 75 -74 75 -77 0 c-68 0 -78 3 -99 25 -20 22 -32 25 -88 25 -60 0 -63 -1 -51 -17z"
       id="path327"
       style="fill-opacity:1;fill:#238be8" />
    <path
       d="M4520 850 l0 -180 55 0 55 0 0 180 0 180 -55 0 -55 0 0 -180z"
       id="path329"
       style="fill-opacity:1;fill:#238be8" />
    <path
       d="M1260 850 l0 -50 49 0 c47 0 51 -3 112 -65 l64 -66 73 3 72 3 -106 113 -106 112 -79 0 -79 0 0 -50z"
       id="path331" />
    <path
       d="M3890 720 l-42 -50 189 0 189 0 49 50 49 50 -196 0 -196 0 -42 -50z"
       id="path333"
       style="fill-opacity:1;fill:#238be8" />
    <path
       id="path11043"
       style="fill:#238be8;stroke:#238be8;stroke-width:1.33333;stroke-dasharray:none;stroke-opacity:1"
       inkscape:transform-center-x="-1.3584705"
       inkscape:transform-center-y="-10.091127"
       transform="matrix(4.2237412,6.197581,6.197581,-4.2237412,380.38602,3406.0098)"
       d="M 306.70989,124.35556 177.76858,81.93897 106.53736,59.032658 50.223358,40.745205 205.75346,144.10955 l 38.76411,25.27688 z"
       sodipodi:nodetypes="ccccccc" />
    <path
       id="path11238"
       style="fill:#238be8;stroke:url(#linearGradient11806);stroke-width:10;stroke-dasharray:none;stroke-opacity:1;paint-order:markers fill stroke"
       inkscape:transform-center-x="2.3341564"
       inkscape:transform-center-y="-0.5032565"
       d="m 2463.9883,4205.1855 -656.4253,-812.1458 -292.1731,-344.243 -189.1284,139.3968 -160.9529,125.1033 186.9765,143.7115 202.4205,161.4935 575.115,448.5254 z"
       sodipodi:nodetypes="ccccccccc" />
  </g>
</svg>
